<svg width="100" height="100" viewBox="0 0 100 100" fill="none" xmlns="http://www.w3.org/2000/svg">
<g id="bash">
<g id="bash_2">
<path id="Vector" d="M87.3559 20.4238L55.8305 1.69496C52.1017 -0.508428 47.4407 -0.508428 43.6271 1.69496L12.1017 20.4238C8.37288 22.6272 6 26.7797 6 31.2712V68.7288C6 73.2204 8.28814 77.2882 12.1017 79.5763L43.6271 98.3051C45.4915 99.4068 47.6102 100 49.7288 100C51.8474 100 53.9661 99.4068 55.8305 98.3051L87.3559 79.5763C91.0847 77.3729 93.4576 73.2204 93.4576 68.7288V31.1865C93.4576 26.7797 91.1695 22.6272 87.3559 20.4238Z" fill="white"/>
<path id="Vector_2" d="M87.3559 20.4237L55.8305 1.69491C53.9661 0.59322 51.8474 0 49.7288 0C47.6102 0 45.4915 0.59322 43.6271 1.69491L12.1017 20.4237C8.37288 22.6271 6 26.7796 6 31.2712V68.7288C6 73.2203 8.28814 77.2881 12.1017 79.5762L43.6271 98.305C45.4915 99.4067 47.6102 100 49.7288 100C51.8474 100 53.9661 99.4067 55.8305 98.305L87.3559 79.5762C91.0847 77.3729 93.4576 73.2203 93.4576 68.7288V31.1864C93.4576 26.7796 91.1695 22.6271 87.3559 20.4237ZM44.7288 96.2712L13.2034 77.5423C10.1525 75.6779 8.20339 72.2881 8.20339 68.644V31.1864C8.20339 27.5424 10.1525 24.0678 13.2034 22.2881L44.7288 3.55932C46.2542 2.62712 47.9491 2.20339 49.7288 2.20339C51.5085 2.20339 53.2034 2.71186 54.7288 3.55932L86.2542 22.2881C88.8813 23.8135 90.5762 26.5254 91.0847 29.4915C90.0678 27.2881 87.6949 26.6102 84.8983 28.2203L55.1525 46.6949C51.4237 48.8983 48.7118 51.2712 48.7118 55.7627V92.5423C48.7118 95.2542 49.8135 96.9491 51.4237 97.4576C50.9152 97.5423 50.322 97.6271 49.7288 97.6271C48.0339 97.7118 46.2542 97.2034 44.7288 96.2712Z" fill="#2A3238"/>
<path id="Vector_3" d="M79.1354 72.2881L71.254 76.9491C71.0845 77.0338 70.915 77.2033 70.915 77.4576V79.4915C70.915 79.7457 71.0845 79.8304 71.254 79.7457L79.2201 74.9152C79.3896 74.8304 79.4744 74.5762 79.4744 74.322V72.5423C79.4744 72.2881 79.3049 72.2033 79.1354 72.2881Z" fill="#4DA925"/>
<path id="Vector_4" d="M62.3557 55C62.61 54.8305 62.7795 55 62.8642 55.3389V58.0508C63.9659 57.6271 64.9829 57.4576 65.9151 57.7118C66.0846 57.7966 66.1693 58.0508 66.0846 58.305L65.4913 60.6779C65.4066 60.8474 65.3218 61.0169 65.2371 61.1864C65.1524 61.2712 65.1524 61.2711 65.0676 61.2711C64.9829 61.2711 64.8981 61.3559 64.8134 61.2711C64.3896 61.1864 63.4574 60.9322 61.932 61.7796C60.3218 62.6271 59.7286 63.983 59.8134 65C59.8134 66.2711 60.4913 66.6101 62.61 66.6101C65.4913 66.6949 66.7625 67.9661 66.8473 70.8474C66.8473 73.7288 65.3218 76.8644 62.949 78.7288L63.0337 81.4406C63.0337 81.7796 62.8642 82.1186 62.61 82.2881L60.9998 83.2203C60.7456 83.3898 60.5761 83.2203 60.4913 82.8813V80.2542C59.1354 80.8474 57.7795 80.9322 56.8473 80.5932C56.6778 80.5084 56.593 80.2542 56.6778 80L57.271 77.5423C57.3557 77.3728 57.4405 77.1186 57.5252 77.0339C57.61 76.9491 57.61 76.9491 57.6947 76.9491C57.7795 76.8644 57.8642 76.8644 57.949 76.9491C58.8812 77.2881 60.1524 77.1186 61.254 76.5254C62.7795 75.7627 63.7117 74.2372 63.7117 72.7118C63.7117 71.3559 62.949 70.7627 61.1693 70.7627C58.8812 70.7627 56.7625 70.3389 56.6778 66.9491C56.6778 64.1525 58.1185 61.2712 60.4066 59.4915V56.7796C60.4066 56.4406 60.5761 56.1017 60.8303 55.9322L62.3557 55Z" fill="white"/>
</g>
</g>
</svg>
