<svg width="100" height="100" viewBox="0 0 100 100" fill="none" xmlns="http://www.w3.org/2000/svg">
<g id="homebrew">
<g id="homebrew_2" clip-path="url(#clip0_790_937)">
<path id="Vector" fill-rule="evenodd" clip-rule="evenodd" d="M44.5055 18.5719C44.7786 9.90516 41.859 4.79556 33.466 1.42029C31.0804 9.76494 40.9291 17.459 44.5055 18.5719Z" fill="#D1D3D4" stroke="black" stroke-width="1.76753" stroke-linejoin="round"/>
<path id="Vector_2" fill-rule="evenodd" clip-rule="evenodd" d="M67.2668 33.2598C67.5399 26.1432 65.7425 23.2709 64.3934 21.217C63.0247 19.3012 59.7406 16.2901 55.7055 16.1639C51.8897 16.0443 50.972 18.1536 47.4517 18.2809C46.8746 11.8705 51.7126 8.35281 51.7126 8.35281C51.7126 8.35281 50.3897 6.48307 49.2952 6.02625C47.721 7.42514 43.3882 12.0912 44.3908 18.0956C41.1517 17.4764 38.8653 15.6226 35.4627 16.2919C30.8273 17.2041 27.0063 20.0067 24.8284 26.1565C22.6509 32.3067 25.5971 39.4816 26.2377 41.5307C26.8786 43.5816 31.6192 52.2923 35.3347 53.5742C39.0495 54.8565 39.0506 54.2786 41.0365 53.5104C43.0229 52.7417 46.0329 51.3325 50.4543 52.9344C54.8731 54.5355 55.4495 54.9192 58.2033 53.1259C60.9594 51.3329 64.5458 45.7598 65.3779 44.158C66.2107 42.5569 66.6594 41.7237 66.9166 40.8912C69.5941 39.555 67.021 39.6377 67.2668 33.2598Z" fill="#D1D3D4" stroke="black" stroke-width="1.76753" stroke-linejoin="round"/>
<path id="Vector_3" d="M74.459 85.2709C75.3332 85.274 76.1994 85.1045 77.0079 84.7722C77.8165 84.4398 78.5514 83.9511 79.1707 83.3341C79.79 82.7171 80.2813 81.9839 80.6167 81.1766C80.952 80.3693 81.1246 79.5037 81.1247 78.6296C81.1255 71.8868 81.1255 61.4672 81.1255 54.7059C81.1255 52.9444 80.4257 51.2549 79.18 50.0093C77.9344 48.7637 76.245 48.0639 74.4834 48.0639H69.0081C68.6166 48.0639 68.2412 47.9084 67.9644 47.6316C67.6876 47.3548 67.5321 46.9793 67.5321 46.5879V43.1082H24.3476L24.4565 94.1093C24.457 94.3569 24.5198 94.6004 24.6391 94.8174C24.7584 95.0343 24.9303 95.2178 25.1391 95.351C27.0624 96.4646 33.228 98.5797 46.1738 98.5797C59.3933 98.5797 65.3026 95.748 66.9945 94.4694C67.1605 94.3316 67.2941 94.159 67.3858 93.9637C67.4775 93.7684 67.5251 93.5553 67.5251 93.3395C67.5321 91.9281 67.5321 88.6576 67.5321 86.7255C67.5321 86.5291 67.5712 86.3346 67.6473 86.1535C67.7234 85.9725 67.8349 85.8084 67.9752 85.6709C68.1155 85.5335 68.2819 85.4255 68.4645 85.3532C68.6471 85.2808 68.8424 85.2457 69.0387 85.2498C70.6627 85.2727 72.6085 85.2761 74.459 85.2709ZM67.5321 55.8222C67.5321 55.3329 67.7266 54.8635 68.0723 54.5174C68.4185 54.1715 68.8878 53.9772 69.3771 53.9772H74.0775C74.5668 53.9772 75.0362 54.1716 75.3823 54.5174C75.7281 54.8636 75.9224 55.3328 75.9225 55.8222V77.2927C75.9224 77.782 75.7281 78.2513 75.3823 78.5975C75.0361 78.9433 74.5668 79.1376 74.0775 79.1377H69.3771C68.8878 79.1376 68.4185 78.9433 68.0723 78.5975C67.7265 78.2513 67.5322 77.782 67.5321 77.2927V55.8222Z" fill="white" stroke="black" stroke-width="1.76753" stroke-linejoin="round"/>
<path id="Vector_4" fill-rule="evenodd" clip-rule="evenodd" d="M28.6048 42.6801V88.4313C28.6048 88.9594 28.8867 89.4472 29.3439 89.7107C31.2114 90.6007 36.6292 92.7251 46.1277 92.7251C55.6893 92.7251 60.9461 90.1439 62.7063 89.0801C62.9131 88.9468 63.0832 88.7637 63.2009 88.5477C63.3187 88.3317 63.3804 88.0896 63.3804 87.8435C63.3845 81.7767 63.3845 42.6801 63.3845 42.6801H28.6048Z" fill="#FBB040"/>
<path id="Vector_5" d="M33.717 50.4293V85.7857" stroke="#FFDB96" stroke-width="4.06719" stroke-linecap="round"/>
<path id="Vector_6" fill-rule="evenodd" clip-rule="evenodd" d="M53.3672 52.0686C53.3672 51.3306 52.9328 50.4494 52.2196 50.007C51.0501 49.298 50.1491 48.2207 49.6579 46.9443C40.2148 47.262 31.5956 45.6037 27.2535 44.4328C26.1387 44.1169 25.0093 43.8546 23.8694 43.6469C21.2705 43.1314 19.2952 40.8491 19.2952 38.1052C19.2952 35.0849 21.6915 32.6306 24.6856 32.5232C25.2631 29.3288 28.0513 26.9037 31.4122 26.9037C35.1915 26.9037 38.255 29.9679 38.255 33.7469C38.255 34.5421 38.1114 35.3033 37.8624 36.014L37.8827 36.0173C38.7266 33.3779 41.1974 31.4653 44.1173 31.4653C47.0184 31.4653 49.476 33.3553 50.3343 35.9701C50.3094 35.7314 50.2969 35.4916 50.297 35.2517C50.297 31.321 53.483 28.1351 57.4129 28.1351C60.5945 28.1351 63.2871 30.2232 64.1982 33.1026L64.8184 32.941C65.655 32.4677 66.5998 32.2192 67.5609 32.2196C70.6491 32.2196 73.1528 34.7232 73.1517 37.8107C73.1517 40.6395 71.0517 42.9771 68.3255 43.3502C67.7081 43.4376 67.1026 43.5948 66.5207 43.8188C64.9004 44.4295 63.2435 44.9358 61.5697 45.3535C61.4886 46.1588 61.2492 46.9402 60.8653 47.6528C60.1863 48.9267 59.8819 50.3669 59.9871 51.8066C59.9863 51.8937 59.9897 52.3498 59.9897 52.4376C59.9897 54.2664 58.5077 55.3793 56.6775 55.3793C56.2427 55.3793 55.8122 55.2937 55.4106 55.1273C55.0089 54.9609 54.644 54.7171 54.3366 54.4096C54.0292 54.1022 53.7854 53.7372 53.619 53.3356C53.4527 52.9339 53.3671 52.5034 53.3672 52.0686Z" fill="white" stroke="black" stroke-width="1.76753" stroke-linecap="round" stroke-linejoin="round"/>
</g>
</g>
<defs>
<clipPath id="clip0_790_937">
<rect width="66.4207" height="100" fill="white" transform="translate(17)"/>
</clipPath>
</defs>
</svg>
