<svg width="100" height="100" viewBox="0 0 100 100" fill="none" xmlns="http://www.w3.org/2000/svg">
<g id="i18next">
<g id="i18next_2">
<path id="path33" d="M62.7129 10.3625V29.1827L83.8618 83.5013C83.8618 83.5013 90.3183 96.7673 71.8519 99.9999H29.7244C29.7244 99.9999 12.5126 98.2039 16.6389 84.5755L38.8641 29.1834V10.3625H62.7129Z" fill="#009688"/>
<path id="path35" d="M63.1593 8.17429H37.7892C35.7344 8.17429 34.063 6.34634 34.063 4.08787C34.063 1.82794 35.7337 0 37.7892 0H63.1593C65.2236 0 66.892 1.82794 66.892 4.08787C66.892 6.34634 65.2228 8.17429 63.1593 8.17429Z" fill="#004D40"/>
<path id="path41" d="M56.4667 41.0918C59.189 41.0918 61.4091 43.7518 61.4091 47.046C61.4091 50.3257 59.1876 52.9923 56.4667 52.9923C53.7378 52.9923 51.5243 50.3257 51.5243 47.046C51.5243 43.7504 53.7378 41.0918 56.4667 41.0918Z" fill="white"/>
<path id="ellipse43" d="M41.2942 56.5378C43.5951 56.5378 45.4603 54.2897 45.4603 51.5164C45.4603 48.7432 43.5951 46.495 41.2942 46.495C38.9933 46.495 37.1281 48.7432 37.1281 51.5164C37.1281 54.2897 38.9933 56.5378 41.2942 56.5378Z" fill="white"/>
<path id="path45" d="M64.5939 27.9353V18.9841C64.5939 18.9841 75.945 16.4813 81.618 29.6843C81.618 29.6843 72.7769 36.1256 64.5939 27.9353Z" fill="#004D40"/>
<path id="path47" d="M36.7919 27.9353V18.9841C36.7919 18.9841 25.4394 16.4813 19.7693 29.6843C19.7693 29.6843 28.6017 36.1256 36.7919 27.9353Z" fill="#004D40"/>
<path id="path49" d="M71.4185 64.9783C52.96 59.2524 37.4413 62.3262 29.8563 64.65L22.2075 83.0606C18.764 94.0514 33.1425 95.496 33.1425 95.496H68.3279C83.7509 92.8903 78.3606 82.1981 78.3606 82.1981L71.4185 64.9783Z" fill="white"/>
<path id="path51" d="M44.8167 71.8188C44.8167 73.804 42.1488 75.4189 38.8625 75.4189C35.5763 75.4189 32.9163 73.8033 32.9163 71.8188C32.9163 69.8256 35.5763 68.2166 38.8625 68.2166C42.1502 68.218 44.8167 69.8256 44.8167 71.8188Z" fill="#004D40"/>
<path id="path53" d="M65.9913 71.8188C65.9913 73.804 63.3233 75.4189 60.045 75.4189C56.7494 75.4189 54.0908 73.8033 54.0908 71.8188C54.0908 69.8256 56.7494 68.2166 60.045 68.2166C63.3248 68.218 65.9913 69.8256 65.9913 71.8188Z" fill="#004D40"/>
</g>
</g>
</svg>
