<svg width="105" height="102" viewBox="0 0 105 102" fill="none" xmlns="http://www.w3.org/2000/svg">
<g id="kubernetes">
<g id="kubernetes_2">
<path id="Vector" d="M93.7519 23.9988C93.1801 22.1691 91.8079 20.6825 90.0926 19.7676L55.2145 3.07189C54.2996 2.61448 53.2704 2.50012 52.3556 2.50012C51.4408 2.50012 50.4116 2.50012 49.4967 2.72883L14.6186 19.5389C12.9033 20.3394 11.6454 21.826 11.188 23.77L2.61142 61.3926C2.26836 63.3367 2.72578 65.2807 3.86932 66.8817L27.9981 96.7282C29.3704 98.1004 31.3144 99.0152 33.2584 99.1296H71.6815C73.7399 99.3583 75.6839 98.4435 76.9418 96.7282L101.071 66.8817C102.214 65.2807 102.672 63.3367 102.443 61.3926L93.7519 23.9988Z" fill="white" stroke="white" stroke-width="5" stroke-miterlimit="10"/>
<path id="Vector_2" d="M93.7519 23.9988C93.1801 22.1691 91.8079 20.6825 90.0926 19.7676L55.2145 3.07189C54.2996 2.61448 53.2704 2.50012 52.3556 2.50012C51.4408 2.50012 50.4116 2.50012 49.4967 2.72883L14.6186 19.5389C12.9033 20.3394 11.6454 21.826 11.188 23.77L2.61142 61.3926C2.26836 63.3367 2.72578 65.2807 3.86932 66.8817L27.9981 96.7282C29.3704 98.1004 31.3144 99.0152 33.2584 99.1296H71.6815C73.7399 99.3583 75.6839 98.4435 76.9418 96.7282L101.071 66.8817C102.214 65.2807 102.672 63.3367 102.443 61.3926L93.7519 23.9988Z" fill="#326DE6"/>
<path id="Vector_3" d="M88.3772 59.906C88.2629 59.906 88.1485 59.906 88.1485 59.7917C88.1485 59.6773 87.9198 59.6773 87.6911 59.6773C87.2337 59.563 86.7763 59.563 86.3188 59.563C86.0901 59.563 85.8614 59.563 85.6327 59.4486H85.5184C84.2605 59.3342 82.8882 59.1055 81.6303 58.7625C81.2872 58.6481 80.9442 58.305 80.8298 57.962L79.915 57.7333C80.3724 54.417 80.1437 50.9864 79.4576 47.6701C78.6571 44.3538 77.2848 41.1519 75.4552 38.293L76.1413 37.6069V37.4925C76.1413 37.1495 76.2556 36.6921 76.4844 36.4634C77.5135 35.5485 78.5427 34.8624 79.6863 34.1763C79.915 34.0619 80.1437 33.9476 80.3724 33.8332C80.8298 33.6045 81.1729 33.3758 81.6303 33.1471C81.7447 33.0327 81.859 33.0327 81.9734 32.9184C82.0877 32.804 81.9734 32.804 81.9734 32.6897C83.0026 31.8892 83.2313 30.5169 82.4308 29.4877C82.0877 29.0303 81.4016 28.6873 80.8298 28.6873C80.2581 28.6873 79.6863 28.916 79.2289 29.259L79.1145 29.3734C79.0002 29.4877 78.8858 29.6021 78.7714 29.6021C78.4284 29.9452 78.0853 30.2882 77.8566 30.6313C77.7423 30.86 77.5136 30.9743 77.3992 31.0887C76.5987 32.0035 75.5695 32.9184 74.5403 33.6045C74.3116 33.7189 74.0829 33.8332 73.8542 33.8332C73.7399 33.8332 73.5112 33.8332 73.3968 33.7189H73.2824L72.3676 34.2906C71.4528 33.3758 70.4236 32.461 69.5087 31.5461C65.2776 28.2298 60.0173 26.1715 54.6427 25.5997L54.5283 24.6849V24.7992C54.1853 24.5705 54.0709 24.2274 53.9565 23.8844C53.9565 22.6265 53.9565 21.3686 54.1853 19.9963V19.882C54.1853 19.6533 54.2996 19.4246 54.2996 19.1958C54.414 18.7384 54.414 18.281 54.5283 17.8236V17.1375C54.6427 15.9939 53.7278 14.8504 52.5843 14.736C51.8982 14.6217 51.212 14.9647 50.6403 15.5365C50.1828 15.9939 49.9541 16.5657 49.9541 17.1375V17.7092C49.9541 18.1667 50.0685 18.6241 50.1828 19.0815C50.2972 19.3102 50.2972 19.5389 50.2972 19.7676V19.882C50.5259 21.1399 50.5259 22.3978 50.5259 23.77C50.4116 24.1131 50.2972 24.4561 49.9541 24.6849V24.9136L49.8398 25.8284C48.5819 25.9428 47.324 26.1715 45.9517 26.4002C40.5771 27.5437 35.6598 30.4026 31.8861 34.405L31.2 33.9476H31.0857C30.9713 33.9476 30.857 34.0619 30.6282 34.0619C30.3995 34.0619 30.1708 33.9476 29.9421 33.8332C28.9129 33.0327 27.8837 32.1179 27.0833 31.2031C26.9689 30.9743 26.7402 30.86 26.6258 30.7456C26.2828 30.4026 26.0541 30.0595 25.711 29.7164C25.5966 29.6021 25.4823 29.6021 25.3679 29.4877C25.2536 29.3734 25.2536 29.3734 25.2536 29.3734C24.7962 29.0303 24.2244 28.8016 23.6526 28.8016C22.9665 28.8016 22.3947 29.0303 22.0517 29.6021C21.3655 30.6313 21.5942 32.0035 22.5091 32.804C22.6234 32.804 22.6234 32.9184 22.6234 32.9184C22.6234 32.9184 22.8521 33.1471 22.9665 33.1471C23.3096 33.3758 23.767 33.6045 24.2244 33.8332C24.4531 33.9476 24.6818 34.0619 24.9105 34.1763C26.0541 34.8624 27.1976 35.5485 28.1124 36.4634C28.3412 36.6921 28.5699 37.1495 28.4555 37.4925V37.3782L29.1416 38.0643C29.0273 38.293 28.9129 38.4074 28.7986 38.6361C25.2536 44.2395 23.767 50.872 24.7962 57.3902L23.8813 57.6189C23.8813 57.7333 23.767 57.7333 23.767 57.7333C23.6526 58.0763 23.3096 58.305 22.9665 58.5338C21.7086 58.8768 20.4507 59.1055 19.0784 59.2199C18.8497 59.2199 18.621 59.2199 18.3923 59.3342C17.9349 59.3342 17.4775 59.4486 17.0201 59.4486C16.9057 59.4486 16.7914 59.563 16.5627 59.563C16.4483 59.563 16.4483 59.563 16.3339 59.6773C15.076 59.906 14.2756 61.0496 14.5043 62.3075C14.733 63.3366 15.7622 64.0228 16.7914 63.9084C17.0201 63.9084 17.1344 63.9084 17.3631 63.7941C17.4775 63.7941 17.4775 63.7941 17.4775 63.6797C17.4775 63.5654 17.8206 63.6797 17.9349 63.6797C18.3923 63.5654 18.8497 63.3366 19.1928 63.2223C19.4215 63.1079 19.6502 62.9936 19.8789 62.9936H19.9933C21.2512 62.5362 22.3947 62.1931 23.767 61.9644H23.8813C24.2244 61.9644 24.5675 62.0787 24.7962 62.3075C24.9105 62.3075 24.9105 62.4218 24.9105 62.4218L25.9397 62.3075C27.655 67.5678 30.857 72.2563 35.3168 75.6869C36.346 76.4874 37.2608 77.1735 38.4043 77.7453L37.8326 78.5458C37.8326 78.6601 37.9469 78.6601 37.9469 78.6601C38.1756 79.0032 38.1756 79.4606 38.0613 79.8037C37.6039 80.9472 36.9177 82.0908 36.2316 83.12V83.2343C36.1173 83.463 36.0029 83.5774 35.7742 83.8061C35.5455 84.0348 35.3168 84.4922 34.9737 84.9496C34.8594 85.064 34.8594 85.1783 34.745 85.2927C34.745 85.2927 34.745 85.407 34.6306 85.407C34.0589 86.5506 34.5163 87.9228 35.5455 88.4946C35.7742 88.609 36.1173 88.7233 36.346 88.7233C37.2608 88.7233 38.0613 88.1516 38.5187 87.3511C38.5187 87.3511 38.5187 87.2367 38.6331 87.2367C38.6331 87.1224 38.7474 87.008 38.8618 86.8937C38.9761 86.4362 39.2048 86.0932 39.3192 85.6357L39.5479 84.9496C39.891 83.6917 40.4627 82.5482 41.0345 81.4046C41.2632 81.0616 41.6063 80.8329 41.9493 80.7185C42.0637 80.7185 42.0637 80.7185 42.0637 80.6042L42.5211 79.6893C45.723 80.9472 49.0393 81.519 52.4699 81.519C54.5283 81.519 56.5867 81.2903 58.6451 80.7185C59.903 80.4898 61.1609 80.0324 62.3044 79.6893L62.7618 80.4898C62.8762 80.4898 62.8762 80.4898 62.8762 80.6042C63.2192 80.7185 63.5623 80.9472 63.791 81.2903C64.3628 82.4338 64.9346 83.5774 65.2776 84.8353V84.9496L65.5063 85.6357C65.6207 86.0932 65.7351 86.5506 65.9638 86.8937C66.0781 87.008 66.0781 87.1224 66.1925 87.2367C66.1925 87.2367 66.1925 87.3511 66.3068 87.3511C66.7642 88.1516 67.5647 88.7233 68.4796 88.7233C68.8226 88.7233 69.0513 88.609 69.3944 88.4946C69.8518 88.2659 70.3092 87.8085 70.4236 87.2367C70.5379 86.6649 70.5379 86.0932 70.3092 85.5214C70.3092 85.407 70.1949 85.407 70.1949 85.407C70.1949 85.2927 70.0805 85.1783 69.9662 85.064C69.7375 84.6066 69.5087 84.2635 69.1657 83.9204C69.0513 83.6917 68.937 83.5774 68.7083 83.3487V83.12C67.9078 82.0908 67.336 80.9472 66.8786 79.8037C66.7642 79.4606 66.7642 79.0032 66.993 78.6601C66.993 78.5458 67.1073 78.5458 67.1073 78.5458L66.7642 77.6309C72.5963 74.086 77.0561 68.5969 79.1145 62.0787L80.0294 62.1931C80.1437 62.1931 80.1437 62.0787 80.1437 62.0787C80.3724 61.85 80.7155 61.7357 81.0585 61.7357H81.1729C82.4308 61.9644 83.6887 62.3075 84.8322 62.7649H84.9466C85.1753 62.8792 85.404 62.9936 85.6327 62.9936C86.0901 63.2223 86.4332 63.451 86.8906 63.5654C87.005 63.5654 87.1193 63.6797 87.348 63.6797C87.4624 63.6797 87.4624 63.6797 87.5767 63.7941C87.8055 63.9084 87.9198 63.9084 88.1485 63.9084C89.1777 63.9084 90.0925 63.2223 90.4356 62.3075C90.3212 61.0496 89.4064 60.1347 88.3772 59.906ZM55.3288 56.361L52.2412 57.8476L49.1537 56.361L48.3532 53.0448L50.5259 50.3002H53.9565L56.1293 53.0448L55.3288 56.361ZM73.9686 48.928C74.5403 51.3294 74.6547 53.7309 74.426 56.1323L63.5623 53.0448C62.5331 52.816 61.9614 51.7868 62.1901 50.7577C62.3044 50.4146 62.4188 50.1859 62.6475 49.9572L71.2241 42.1811C72.482 44.2395 73.3968 46.5265 73.9686 48.928ZM67.7934 37.95L58.4164 44.5825C57.6159 45.0399 56.4723 44.9256 55.9006 44.1251C55.6719 43.8964 55.5575 43.6677 55.5575 43.3246L54.8714 31.7748C59.903 32.3466 64.3628 34.5193 67.7934 37.95ZM47.0953 32.1179L49.3824 31.6605L48.8106 43.0959C48.8106 44.1251 47.8958 44.9256 46.8666 44.9256C46.5235 44.9256 46.2948 44.8112 45.9517 44.6969L36.4603 37.95C39.4335 35.0911 43.0929 33.0327 47.0953 32.1179ZM33.144 42.1811L41.6063 49.7285C42.4067 50.4146 42.5211 51.5581 41.835 52.3586C41.6063 52.7017 41.3776 52.816 40.9201 52.9304L29.8278 56.1323C29.4847 51.3294 30.6282 46.4122 33.144 42.1811ZM31.2 61.507L42.5211 59.563C43.4359 59.563 44.3508 60.1347 44.4651 61.0496C44.5795 61.3926 44.5795 61.85 44.3508 62.1931L40.0053 72.7137C36.0029 70.0836 32.801 66.0812 31.2 61.507ZM57.1585 75.6869C55.5575 76.03 53.9565 76.2587 52.2412 76.2587C49.8398 76.2587 47.324 75.8013 45.0369 75.1152L50.6403 64.9376C51.212 64.2515 52.1269 64.0228 52.9274 64.4802C53.2704 64.7089 53.4991 64.9376 53.8422 65.2807L59.3312 75.2295C58.6451 75.3439 57.9589 75.4582 57.1585 75.6869ZM71.1097 65.7381C69.3944 68.4826 66.9929 70.884 64.2484 72.5993L59.7886 61.85C59.5599 60.9352 60.0173 60.0204 60.8178 59.6773C61.1609 59.563 61.5039 59.4486 61.847 59.4486L73.2824 61.3926C72.7107 62.9936 72.0245 64.4802 71.1097 65.7381Z" fill="white"/>
</g>
</g>
</svg>
