<svg width="100" height="100" viewBox="0 0 100 100" fill="none" xmlns="http://www.w3.org/2000/svg">
<g id="openai">
<g id="openai_2">
<path id="Vector" d="M93.0601 40.9375C94.3101 37.5 94.6226 34.0625 94.3101 30.625C93.9976 27.1875 92.7476 23.75 91.1851 20.625C88.3726 15.9375 84.3101 12.1875 79.6226 10C74.6226 7.8125 69.3101 7.1875 63.9976 8.4375C61.4976 5.9375 58.6851 3.75 55.5601 2.1875C52.4351 0.625 48.6851 0 45.2476 0C39.9351 0 34.6226 1.5625 30.2476 4.6875C25.8726 7.8125 22.7476 12.1875 21.1851 17.1875C17.4351 18.125 14.3101 19.6875 11.1851 21.5625C8.37257 23.75 6.18507 26.5625 4.31007 29.375C1.49757 34.0625 0.560072 39.375 1.18507 44.6875C1.81007 50 3.99757 55 7.43507 59.0625C6.18507 62.5 5.87257 65.9375 6.18507 69.375C6.49757 72.8125 7.74757 76.25 9.31007 79.375C12.1226 84.0625 16.1851 87.8125 20.8726 90C25.8726 92.1875 31.1851 92.8125 36.4976 91.5625C38.9976 94.0625 41.8101 96.25 44.9351 97.8125C48.0601 99.375 51.8101 100 55.2476 100C60.5601 100 65.8726 98.4375 70.2476 95.3125C74.6226 92.1875 77.7476 87.8125 79.3101 82.8125C82.7476 82.1875 86.1851 80.625 88.9976 78.4375C91.8101 76.25 94.3101 73.75 95.8726 70.625C98.6851 65.9375 99.6226 60.625 98.9976 55.3125C98.3726 50 96.4976 45 93.0601 40.9375ZM55.5601 93.4375C50.5601 93.4375 46.8101 91.875 43.3726 89.0625C43.3726 89.0625 43.6851 88.75 43.9976 88.75L63.9976 77.1875C64.6226 76.875 64.9351 76.5625 65.2476 75.9375C65.5601 75.3125 65.5601 75 65.5601 74.375V46.25L73.9976 51.25V74.375C74.3101 85.3125 65.5601 93.4375 55.5601 93.4375ZM15.2476 76.25C13.0601 72.5 12.1226 68.125 13.0601 63.75C13.0601 63.75 13.3726 64.0625 13.6851 64.0625L33.6851 75.625C34.3101 75.9375 34.6226 75.9375 35.2476 75.9375C35.8726 75.9375 36.4976 75.9375 36.8101 75.625L61.1851 61.5625V71.25L40.8726 83.125C36.4976 85.625 31.4976 86.25 26.8101 85C21.8101 83.75 17.7476 80.625 15.2476 76.25ZM9.93507 32.8125C12.1226 29.0625 15.5601 26.25 19.6226 24.6875V25.3125V48.4375C19.6226 49.0625 19.6226 49.6875 19.9351 50C20.2476 50.625 20.5601 50.9375 21.1851 51.25L45.5601 65.3125L37.1226 70.3125L17.1226 58.75C12.7476 56.25 9.62257 52.1875 8.37257 47.5C7.12257 42.8125 7.43507 37.1875 9.93507 32.8125ZM78.9976 48.75L54.6226 34.6875L63.0601 29.6875L83.0601 41.25C86.1851 43.125 88.6851 45.625 90.2476 48.75C91.8101 51.875 92.7476 55.3125 92.4351 59.0625C92.1226 62.5 90.8726 65.9375 88.6851 68.75C86.4976 71.5625 83.6851 73.75 80.2476 75V51.25C80.2476 50.625 80.2476 50 79.9351 49.6875C79.9351 49.6875 79.6226 49.0625 78.9976 48.75ZM87.4351 36.25C87.4351 36.25 87.1226 35.9375 86.8101 35.9375L66.8101 24.375C66.1851 24.0625 65.8726 24.0625 65.2476 24.0625C64.6226 24.0625 63.9976 24.0625 63.6851 24.375L39.3101 38.4375V28.75L59.6226 16.875C62.7476 15 66.1851 14.375 69.9351 14.375C73.3726 14.375 76.8101 15.625 79.9351 17.8125C82.7476 20 85.2476 22.8125 86.4976 25.9375C87.7476 29.0625 88.0601 32.8125 87.4351 36.25ZM34.9351 53.75L26.4976 48.75V25.3125C26.4976 21.875 27.4351 18.125 29.3101 15.3125C31.1851 12.1875 33.9976 10 37.1226 8.4375C40.2476 6.875 43.9976 6.25 47.4351 6.875C50.8726 7.1875 54.3101 8.75 57.1226 10.9375C57.1226 10.9375 56.8101 11.25 56.4976 11.25L36.4976 22.8125C35.8726 23.125 35.5601 23.4375 35.2476 24.0625C34.9351 24.6875 34.9351 25 34.9351 25.625V53.75ZM39.3101 43.75L50.2476 37.5L61.1851 43.75V56.25L50.2476 62.5L39.3101 56.25V43.75Z" fill="#193718"/>
</g>
</g>
</svg>
