<svg width="101" height="101" viewBox="0 0 101 101" fill="none" xmlns="http://www.w3.org/2000/svg">
<g id="swagger">
<g id="swagger_2">
<path id="Vector" d="M50.6168 97.2658C24.3612 97.2658 3 75.9066 3 49.65C3 23.3934 24.3612 2.03418 50.6168 2.03418C76.8724 2.03418 98.2336 23.3954 98.2336 49.651C98.2336 75.9066 76.8724 97.2658 50.6168 97.2658Z" fill="#85EA2D"/>
<path id="Vector_2" d="M49.9995 4.80056C74.9818 4.80056 95.2326 25.0514 95.2326 50.0337C95.2326 75.0149 74.9818 95.2668 49.9995 95.2668C25.0182 95.2668 4.76638 75.0149 4.76638 50.0337C4.76638 25.0524 25.0182 4.80056 49.9995 4.80056ZM49.9995 0.0341797C22.4297 0.0341797 0 22.4638 0 50.0337C0 77.6035 22.4297 100.033 49.9995 100.033C77.5693 100.033 100 77.6035 100 50.0337C100 22.4638 77.5693 0.0341797 49.9995 0.0341797Z" fill="#173647"/>
<path id="Vector_3" d="M31.9192 33.4228C31.7653 35.1339 31.9762 36.9029 31.8622 38.6329C31.7273 40.364 31.5154 42.075 31.1696 43.7861C30.6889 46.2278 29.1697 48.0737 27.0749 49.6119C31.1516 52.2654 31.6124 56.3792 31.8812 60.5519C32.0161 62.8016 31.9582 65.0704 32.1891 67.3002C32.362 69.0302 33.0346 69.473 34.8236 69.5299C35.5542 69.5489 36.3028 69.5299 37.1503 69.5299V74.875C31.8632 75.7785 27.4986 74.2793 26.4212 69.7998C26.0744 68.1657 25.8435 66.4926 25.7676 64.8005C25.6516 63.0125 25.8435 61.2245 25.7096 59.4365C25.3248 54.5332 24.6902 52.8801 19.9998 52.6492V46.5546C20.3456 46.4776 20.6724 46.4196 21.0182 46.3817C23.5948 46.2467 24.6902 45.4582 25.2479 42.9206C25.5177 41.4984 25.6716 40.0561 25.7286 38.5949C25.9215 35.8075 25.8445 32.962 26.3243 30.1936C26.9969 26.2138 29.4586 24.2908 33.5543 24.0599C34.7077 24.002 35.881 24.0599 37.2073 24.0599V29.5209C36.6496 29.5599 36.1689 29.6359 35.6691 29.6359C32.343 29.5199 32.1691 30.6543 31.9192 33.4228ZM38.3217 46.0738H38.2447C36.3218 45.9779 34.6687 47.4771 34.5717 49.4C34.4758 51.3419 35.975 52.996 37.8979 53.091H38.1288C40.0327 53.2069 41.6658 51.7447 41.7818 49.8418V49.6499C41.8208 47.7079 40.2636 46.1128 38.3217 46.0738ZM50.377 46.0738C48.5121 46.0159 46.9539 47.4771 46.897 49.323C46.897 49.439 46.897 49.5349 46.917 49.6499C46.917 51.7457 48.3392 53.092 50.493 53.092C52.6078 53.092 53.9351 51.7077 53.9351 49.5349C53.9151 47.4391 52.5109 46.0548 50.377 46.0738ZM62.7213 46.0738C60.7603 46.0349 59.1252 47.593 59.0683 49.5539C59.0683 51.5148 60.6444 53.091 62.6053 53.091H62.6443C64.4133 53.3988 66.2013 51.6877 66.3173 49.6309C66.4122 47.7269 64.6822 46.0738 62.7213 46.0738ZM79.6599 46.3617C77.4292 46.2657 76.3138 45.5161 75.7571 43.4003C75.4103 42.055 75.1994 40.6508 75.1224 39.2666C74.9685 36.69 74.9875 34.0944 74.8146 31.5178C74.4108 25.4042 69.9893 23.2704 63.5668 24.3268V29.6339C64.5852 29.6339 65.3738 29.6339 66.1624 29.6529C67.5276 29.6719 68.566 30.1916 68.7 31.7107C68.8349 33.095 68.8349 34.4982 68.9698 35.9024C69.2397 38.6909 69.3926 41.5163 69.8733 44.2658C70.2971 46.5346 71.8542 48.2267 73.7952 49.6109C70.393 51.8986 69.3926 55.1668 69.2197 58.8398C69.1237 61.3584 69.0658 63.896 68.9318 66.4346C68.8159 68.7414 68.0093 69.491 65.6826 69.5489C65.029 69.5679 64.3943 69.6259 63.6637 69.6649V75.1059C65.029 75.1059 66.2783 75.1828 67.5276 75.1059C71.4115 74.875 73.7572 72.991 74.5268 69.2221C74.8536 67.1452 75.0455 65.0504 75.1035 62.9546C75.2374 61.0316 75.2194 59.0897 75.4113 57.1867C75.6991 54.2064 77.0644 52.976 80.0447 52.7841C80.3336 52.7452 80.6024 52.6882 80.8723 52.5923V46.4966C80.3715 46.4386 80.0247 46.3817 79.6599 46.3617Z" fill="#173647"/>
</g>
</g>
</svg>
