<svg width="103" height="103" viewBox="0 0 103 103" fill="none" xmlns="http://www.w3.org/2000/svg">
<g id="vim">
<g id="vim_2">
<path id="path2836" d="M51.4514 5.32642L5.65332 51.1861L51.2606 96.8546L97.0587 50.995L51.4514 5.32642Z" fill="#019833" stroke="black" stroke-width="0.267335"/>
<path id="path2838" d="M51.2607 5.5176V1.50488L1.45532 51.3772H5.65348L51.2607 5.5176Z" fill="#66FE98" stroke="black" stroke-width="0.267335"/>
<path id="path2840" d="M51.1462 5.5176V1.50488L100.952 51.3772H96.7535L51.1462 5.5176Z" fill="#45FE02" stroke="black" stroke-width="0.267335"/>
<path id="path2842" d="M51.2607 97.1223V101.135L1.45532 51.2627H5.65348L51.2607 97.1223Z" fill="#017D17" stroke="black" stroke-width="0.267335"/>
<path id="path3650" d="M10.6949 6.56982H42.8092L44.7657 8.52899V14.5416L43.214 16.4332H39.7057V46.2937L69.9309 16.4332H64.9383L63.1842 14.5416V8.1912L64.8034 6.70494H97.3225L98.9417 8.32632V14.2714L25.4027 89.8008H17.0368L14.6152 88.4009V16.163H10.56L9.07568 14.6767V8.32632L10.6949 6.56982Z" stroke="black" stroke-width="5.3467"/>
<path id="path2844" d="M51.1462 97.1223V101.135L100.952 51.2627H96.7535L51.1462 97.1223Z" fill="#005D04" stroke="black" stroke-width="0.267335"/>
<path id="path2846" d="M51.1263 1.13501L1.13354 51.195L50.918 101.046L100.911 50.9864L51.1263 1.13501Z" stroke="black" stroke-width="1.60401"/>
<path id="path3640" d="M43.1506 9.62583L44.9635 8.67042L43.1029 6.80737H10.7103L9.06445 8.45545V14.6895L10.8892 16.5167L11.7599 14.6895L10.6149 13.543V9.14812L11.4736 8.3838H42.3873L43.1506 9.62583Z" fill="#FEFEFE" stroke="black" stroke-width="0.267335"/>
<path id="path3632" d="M66.052 8.19141L64.9083 9.3367V13.5417L65.9101 14.5449H71.2031V18.6078L36.1891 54.1454V14.595H42.008L43.2019 13.3996V9.14443L42.0999 8.29172H11.4772L10.4753 9.2949V13.642L11.4939 14.6619H16.8203V87.4928L17.8221 88.496H23.8749L97.2508 12.6806V9.3367L96.107 8.19141H66.052Z" stroke="black" stroke-width="0.267335"/>
<path id="path3646" d="M16.767 14.5415V87.5038L17.7115 88.5847L16.9708 89.9983L14.8779 87.9091V16.4331L16.767 14.5415Z" fill="#FEFEFE" stroke="black" stroke-width="0.267335"/>
<path id="path3644" d="M11.5339 14.5415L10.9941 16.298H14.9072L17.0662 14.5415H11.5339Z" fill="#808080" stroke="black" stroke-width="0.267335"/>
<g id="path3638">
<path d="M65.2864 16.5143L66.1451 14.7468L64.9048 13.6003V9.68313L66.336 8.25001H96.2001L97.3451 9.77866L98.9671 8.63217L97.2974 6.96021H65.191L63.5928 8.56052V14.8423L65.2506 16.4068M39.3044 46.5703L36.1855 54.1479L71.3928 18.7977V14.5939L39.3044 46.5703Z" fill="#FEFEFE"/>
<path d="M65.2864 16.5143L66.1451 14.7468L64.9048 13.6003V9.68313L66.336 8.25001H96.2001L97.3451 9.77866L98.9671 8.63217L97.2974 6.96021H65.191L63.5929 8.56052V14.8423L65.2506 16.4068M39.3044 46.5703L36.1855 54.1479L71.3928 18.7977V14.5939L39.3044 46.5703Z" stroke="black" stroke-width="0.267335"/>
</g>
<path id="path3642" d="M43.0791 9.40716L44.6309 8.3938V14.5415L42.843 16.3318H39.3685V46.6314L36.1975 54.1303V14.5415H41.9997L43.0791 13.6633V9.40716Z" fill="#808080" stroke="black" stroke-width="0.267335"/>
<path id="path3622" d="M66.052 8.19141L64.9083 9.3367V13.5417L65.9101 14.5449H71.2031V18.6078L36.1891 54.1454V14.595H42.008L43.2019 13.3996V9.14443L42.0999 8.29172H11.4772L10.4753 9.2949V13.642L11.4939 14.6619H16.8203V87.4928L17.8221 88.4959H23.8749L97.2508 12.6806V9.3367L96.107 8.19141H66.052Z" fill="#CCCCCC" stroke="black" stroke-width="0.267335"/>
<path id="path3636" d="M97.345 9.43483L98.9747 8.49268V14.403L25.0594 90.0345H17.2119L17.9617 88.5427H23.9727L97.2496 12.7788L97.345 9.43483Z" fill="#808080" stroke="black" stroke-width="0.267335"/>
<path id="path3652" d="M71.2467 14.6428L69.5938 16.3655H65.2759L66.2879 14.6428C66.3216 14.6428 71.2467 14.6428 71.2467 14.6428Z" fill="#808080" stroke="black" stroke-width="0.267335"/>
<path id="path3671" d="M53.6209 57.2842C53.5652 57.2958 53.5134 57.3217 53.4706 57.3594L52.0514 58.5799C52.0089 58.6185 51.9773 58.6675 51.9595 58.7221L50.5403 62.7013C50.5193 62.7598 50.5152 62.8229 50.5285 62.8836C50.5418 62.9442 50.5719 62.9998 50.6154 63.0441L51.7007 64.1309C51.7635 64.1912 51.8475 64.2243 51.9345 64.2228H56.3175C56.4045 64.2243 56.4885 64.1912 56.5513 64.1309L57.695 62.9772C57.7344 62.9377 57.7631 62.8888 57.7785 62.8351L58.9974 58.6468C59.014 58.59 59.015 58.5297 59.0003 58.4723C58.9856 58.415 58.9558 58.3626 58.9139 58.3208L57.9705 57.3761C57.9078 57.3158 57.8238 57.2827 57.7368 57.2842H53.6877C53.6655 57.2819 53.6431 57.2819 53.6209 57.2842ZM45.5895 68.5031C45.5293 68.516 45.4739 68.5456 45.4297 68.5884C45.3854 68.6313 45.354 68.6857 45.3391 68.7455L44.7964 70.9023C44.7844 70.9508 44.7834 71.0013 44.7937 71.0501C44.804 71.099 44.8252 71.1448 44.8557 71.1843C44.8863 71.2237 44.9254 71.2557 44.97 71.2778C45.0147 71.2999 45.0638 71.3116 45.1137 71.312H47.6934L41.2983 89.5949C41.2818 89.6442 41.2772 89.6968 41.2848 89.7483C41.2925 89.7997 41.3121 89.8486 41.3423 89.891C41.3724 89.9334 41.4121 89.9681 41.4581 89.9922C41.5042 90.0162 41.5553 90.0291 41.6072 90.0296H50.9159C50.9859 90.0306 51.0544 90.0093 51.1114 89.9687C51.1685 89.9281 51.2111 89.8704 51.2332 89.8039L51.8426 87.8394C51.8578 87.7899 51.861 87.7375 51.8522 87.6865C51.8434 87.6355 51.8227 87.5873 51.7918 87.5458C51.7609 87.5043 51.7207 87.4706 51.6744 87.4476C51.6281 87.4245 51.5771 87.4126 51.5254 87.413H49.4215L55.7498 68.9378C55.7663 68.8884 55.771 68.8359 55.7633 68.7844C55.7557 68.733 55.736 68.6841 55.7059 68.6417C55.6758 68.5993 55.636 68.5646 55.59 68.5405C55.5439 68.5164 55.4929 68.5036 55.4409 68.5031H45.6563C45.6341 68.5008 45.6117 68.5008 45.5895 68.5031ZM75.2104 68.5699C75.1388 68.5848 75.0742 68.623 75.0267 68.6786L73.0899 70.8689H70.0092L67.9555 68.7371C67.9251 68.7057 67.8888 68.6807 67.8486 68.6635C67.8085 68.6463 67.7654 68.6372 67.7217 68.6368H60.3666C60.299 68.637 60.2332 68.6579 60.1779 68.6968C60.1227 68.7357 60.0807 68.7906 60.0577 68.8542L59.3814 70.8773C59.3649 70.9266 59.3603 70.9791 59.3679 71.0306C59.3755 71.0821 59.3952 71.131 59.4254 71.1734C59.4555 71.2158 59.4952 71.2504 59.5412 71.2745C59.5873 71.2986 59.6384 71.3114 59.6903 71.312H61.6606L55.5327 89.3943C55.5162 89.4436 55.5116 89.4962 55.5192 89.5476C55.5268 89.5991 55.5465 89.648 55.5766 89.6904C55.6068 89.7328 55.6465 89.7674 55.6925 89.7915C55.7386 89.8156 55.7897 89.8285 55.8416 89.829H63.6726C63.7402 89.8288 63.806 89.8079 63.8613 89.769C63.9165 89.7301 63.9585 89.6752 63.9815 89.6116L64.5826 87.8477C64.5991 87.7984 64.6038 87.7458 64.5962 87.6944C64.5885 87.6429 64.5688 87.594 64.5387 87.5516C64.5086 87.5092 64.4689 87.4746 64.4228 87.4505C64.3768 87.4264 64.3257 87.4135 64.2737 87.413H62.9046L66.8117 75.099H73.883L69.4248 89.4026C69.4097 89.4521 69.4064 89.5045 69.4152 89.5555C69.4241 89.6065 69.4448 89.6547 69.4757 89.6962C69.5065 89.7377 69.5468 89.7714 69.593 89.7944C69.6393 89.8175 69.6904 89.8293 69.7421 89.829H77.2976C77.3617 89.8285 77.4244 89.8093 77.4777 89.7736C77.5311 89.738 77.573 89.6875 77.5981 89.6284L78.2743 88.0066C78.294 87.957 78.3013 87.9033 78.2957 87.8503C78.2901 87.7972 78.2718 87.7463 78.2422 87.702C78.2127 87.6576 78.1728 87.621 78.1261 87.5955C78.0793 87.5699 78.0271 87.556 77.9738 87.5551H76.6046L80.5786 75.0321H87.3075L82.7826 89.4026C82.7675 89.4521 82.7642 89.5045 82.773 89.5555C82.7819 89.6065 82.8026 89.6547 82.8334 89.6962C82.8643 89.7377 82.9045 89.7714 82.9508 89.7944C82.9971 89.8175 83.0481 89.8293 83.0998 89.829H91.3984C91.4649 89.8295 91.53 89.8098 91.5852 89.7725C91.6403 89.7352 91.6829 89.682 91.7073 89.62L92.3835 87.8561C92.4017 87.8063 92.4076 87.7528 92.4007 87.7002C92.3939 87.6477 92.3745 87.5975 92.3442 87.554C92.3139 87.5106 92.2736 87.475 92.2266 87.4505C92.1797 87.4259 92.1276 87.4131 92.0746 87.413H90.4299L95.4307 71.1531C95.4472 71.1026 95.4513 71.0489 95.4425 70.9965C95.4338 70.9441 95.4126 70.8946 95.3806 70.8522L93.8278 68.7622C93.7961 68.722 93.7554 68.6897 93.709 68.6679C93.6627 68.6461 93.6119 68.6355 93.5607 68.6368H87.6248C87.5797 68.6361 87.535 68.6446 87.4933 68.6618C87.4517 68.6791 87.414 68.7047 87.3827 68.7371L85.5126 70.7937H82.2399L80.3031 68.6703C80.2717 68.6378 80.234 68.6122 80.1924 68.595C80.1507 68.5777 80.106 68.5692 80.0609 68.5699H75.2772C75.255 68.5677 75.2326 68.5677 75.2104 68.5699Z" fill="#CCCCCC" stroke="black" stroke-width="2.13868" stroke-miterlimit="10"/>
<path id="path3665" d="M53.6876 57.6101L52.2684 58.8306L50.8491 62.8099L51.9344 63.8967H56.3174L57.4612 62.743L58.6801 58.5548L57.7367 57.6101H53.6876ZM45.6563 68.829L45.1136 70.9858H48.1525L41.6072 89.7035H50.9159L51.5253 87.7389H48.9623L55.4408 68.829H45.6563ZM75.2771 68.8959L73.2484 71.1948H69.8756L67.7216 68.9628H60.3665L59.6903 70.9858H62.1197L55.8416 89.5029H63.6726L64.2737 87.7389H62.4537L66.5695 74.7728H74.3337L69.742 89.5029H77.2975L77.9737 87.8811H76.1537L80.3364 74.706H87.7583L83.0998 89.5029H91.3983L92.0745 87.7389H89.979L95.1134 71.0527L93.5606 68.9628H87.6247L85.6628 71.1196H82.0896L80.0609 68.8959H75.2771Z" fill="#CCCCCC" stroke="black" stroke-width="0.267335" stroke-miterlimit="10"/>
</g>
</g>
</svg>
