<svg width="102" height="102" viewBox="0 0 102 102" fill="none" xmlns="http://www.w3.org/2000/svg">
<g id="visualbasic">
<g id="visualbasic_2">
<path id="Vector" d="M51.3916 100C79.0058 100 101.392 77.6142 101.392 50C101.392 22.3858 79.0058 0 51.3916 0C23.7774 0 1.3916 22.3858 1.3916 50C1.3916 77.6142 23.7774 100 51.3916 100Z" fill="#004E8C"/>
<path id="Vector_2" opacity="0.1" d="M16.7355 14.0625C11.6526 18.5919 7.54833 24.1116 4.67414 30.2833C1.79995 36.455 0.216439 43.1487 0.0206758 49.9541C-0.175088 56.7594 1.02102 63.533 3.53568 69.8598C6.05034 76.1865 9.83057 81.933 14.6447 86.7471C19.4588 91.5612 25.2053 95.3414 31.532 97.8561C37.8587 100.371 44.6324 101.567 51.4377 101.371C58.2431 101.175 64.9367 99.5918 71.1084 96.7176C77.2802 93.8434 82.7999 89.7391 87.3293 84.6562L16.7355 14.0625Z" fill="white"/>
<path id="Vector_3" d="M53.4072 30.3125L38.8916 69.6875H33.751L19.4697 30.3125H24.6104L35.5479 61.5625C35.925 62.6956 36.1919 63.8625 36.3447 65.0469H36.4541C36.6178 63.8316 36.9112 62.6373 37.3291 61.4844L48.4541 30.2344L53.4072 30.3125Z" fill="white"/>
<path id="Vector_4" d="M59.0791 69.6874V30.3124H70.2822C73.1916 30.1567 76.0612 31.0431 78.376 32.8124C79.344 33.5941 80.1185 34.5888 80.6388 35.719C81.1592 36.8492 81.4115 38.0843 81.376 39.3281C81.4065 41.4165 80.7536 43.4576 79.5166 45.1406C78.2683 46.8165 76.516 48.0485 74.5166 48.6562V48.7656C76.9348 48.9605 79.2001 50.0265 80.8916 51.7656C82.527 53.5683 83.386 55.9431 83.2822 58.3749C83.3334 59.9245 83.034 61.4657 82.4063 62.8833C81.7786 64.301 80.8389 65.5587 79.6572 66.5624C77.1001 68.6959 73.8446 69.8088 70.5166 69.6874H59.0791ZM63.7666 34.4687V47.1874H68.4541C70.5884 47.2878 72.6884 46.6229 74.376 45.3124C75.1072 44.6755 75.683 43.8797 76.0594 42.986C76.4359 42.0923 76.6029 41.1244 76.5479 40.1562C76.5479 36.3333 74.0322 34.4218 69.001 34.4218L63.7666 34.4687ZM63.7666 51.3281V65.4999H70.0166C72.2631 65.6301 74.4814 64.948 76.2666 63.5781C77.0114 62.9252 77.5992 62.1126 77.9861 61.2008C78.373 60.2891 78.549 59.3017 78.501 58.3124C78.501 53.6666 75.3343 51.3437 69.001 51.3437L63.7666 51.3281Z" fill="white"/>
</g>
</g>
</svg>
